# MagicaVoxel @ Ephtracy

# group
o 

# material
mtllib magazine1.mtl
usemtl palette

# normals
vn -1 0 0
vn 1 0 0
vn 0 0 1
vn 0 0 -1
vn 0 -1 0
vn 0 1 0

# texcoords
vt 0.0292969 0.5
vt 0.369141 0.5
vt 0.958984 0.5
vt 0.966797 0.5
vt 0.990234 0.5
vt 0.994141 0.5

# verts
v -1.3 0 2
v -1.3 0 -2
v -1.3 0.1 2
v -1.3 0.1 -2
v 1.2 0 2
v 1.2 0 -2
v 1.2 0.1 2
v 1.2 0.1 -2
v -1.3 0 2
v -1.3 0.1 2
v 1.2 0 2
v 1.2 0.1 2
v -1.3 0 -2
v -1.3 0.1 -2
v 1.2 0 -2
v 1.2 0.1 -2
v -1.3 0 2
v 1.2 0 2
v -1.2 0 1.6
v -1.1 0 1.6
v -1 0 1.6
v -0.9 0 1.6
v -0.7 0 1.6
v -0.5 0 1.6
v -0.4 0 1.6
v -0.3 0 1.6
v -0.0999999 0 1.6
v 0 0 1.6
v 0.1 0 1.6
v 0.2 0 1.6
v 0.7 0 1.6
v 0.8 0 1.6
v -1.2 0 1.5
v -1.1 0 1.5
v -0.7 0 1.5
v -0.6 0 1.5
v -0.0999999 0 1.5
v 0 0 1.5
v 0.1 0 1.5
v 0.2 0 1.5
v 0.7 0 1.5
v 0.8 0 1.5
v -1 0 1.4
v -0.9 0 1.4
v -0.6 0 1.4
v -0.5 0 1.4
v -0.4 0 1.4
v -0.3 0 1.4
v 0 0 1.4
v 0.1 0 1.4
v -1.2 0 1.3
v -1.1 0 1.3
v -1 0 1.3
v -0.9 0 1.3
v -0.8 0 1.3
v -0.7 0 1.3
v -0.4 0 1.3
v -0.3 0 1.3
v -0.0999999 0 1.3
v 0.1 0 1.3
v 0.6 0 1.3
v 0.7 0 1.3
v 0.8 0 1.3
v 0.9 0 1.3
v -0.8 0 1.2
v -0.7 0 1.2
v -0.6 0 1.2
v -0.4 0 1.2
v -0.3 0 1.2
v -0.0999999 0 1.2
v 0.1 0 1.2
v 0.3 0 1.2
v 0.4 0 1.2
v 0.8 0 1.2
v 0.9 0 1.2
v -1 0 1.1
v -0.9 0 1.1
v -0.7 0 1.1
v -0.6 0 1.1
v -0.2 0 1.1
v -0.0999999 0 1.1
v 0.3 0 1.1
v 0.4 0 1.1
v -1.2 0 1
v -1.1 0 1
v -0.2 0 1
v -0.0999999 0 1
v 0.6 0 1
v 0.7 0 1
v -0.8 0 0.9
v 0.7 0 0.9
v -0.9 0 0.8
v -0.8 0 0.8
v 0.7 0 0.8
v 0.8 0 0.8
v -0.3 0 0.3
v -0.0999999 0 0.3
v -0.3 0 0.2
v -0.0999999 0 0.2
v 0 0 -0.3
v 0.1 0 -0.3
v 0 0 -0.4
v 0.1 0 -0.4
v -1 0 -0.5
v -0.9 0 -0.5
v -0.8 0 -0.5
v -0.5 0 -0.5
v -0.3 0 -0.5
v 0.3 0 -0.5
v 0.5 0 -0.5
v -0.6 0 -0.6
v -0.5 0 -0.6
v -0.3 0 -0.6
v -0.2 0 -0.6
v 0.2 0 -0.6
v 0.3 0 -0.6
v 0.5 0 -0.6
v 0.6 0 -0.6
v 0.7 0 -0.6
v 0.8 0 -0.6
v 0.9 0 -0.6
v -0.6 0 -0.7
v -0.2 0 -0.7
v 0.2 0 -0.7
v 0.6 0 -0.7
v -0.8 0 -0.9
v 0.7 0 -0.9
v -1 0 -1
v -0.9 0 -1
v 0.7 0 -1
v 0.9 0 -1
v -0.9 0 -1.1
v 0.7 0 -1.1
v -0.9 0 -1.3
v -0.6 0 -1.3
v -0.5 0 -1.3
v -0.4 0 -1.3
v -0.3 0 -1.3
v -0.2 0 -1.3
v 0 0 -1.3
v 0.2 0 -1.3
v 0.3 0 -1.3
v 0.4 0 -1.3
v 0.5 0 -1.3
v 0.6 0 -1.3
v -0.9 0 -1.4
v -0.7 0 -1.4
v -0.4 0 -1.4
v -0.3 0 -1.4
v -0.0999999 0 -1.4
v 0 0 -1.4
v 0.2 0 -1.4
v -0.4 0 -1.5
v -0.3 0 -1.5
v 0.4 0 -1.5
v 0.5 0 -1.5
v 0.6 0 -1.5
v -0.0999999 0 -1.6
v 0 0 -1.6
v 0.2 0 -1.6
v 0.4 0 -1.6
v 0.5 0 -1.6
v 0.6 0 -1.6
v -0.7 0 -1.7
v -0.6 0 -1.7
v -0.5 0 -1.7
v -0.4 0 -1.7
v -0.3 0 -1.7
v -0.2 0 -1.7
v 0 0 -1.7
v 0.2 0 -1.7
v 0.5 0 -1.7
v 0.6 0 -1.7
v -0.7 0 -1.8
v -0.6 0 -1.8
v -0.4 0 -1.8
v -0.3 0 -1.8
v 0.3 0 -1.8
v 0.4 0 -1.8
v -0.7 0 -1.9
v -0.6 0 -1.9
v -1.3 0 -2
v 1.2 0 -2
v -1.3 0.1 2
v 1.2 0.1 2
v -1.2 0.1 1.6
v -1.1 0.1 1.6
v -1 0.1 1.6
v -0.9 0.1 1.6
v -0.7 0.1 1.6
v -0.5 0.1 1.6
v -0.4 0.1 1.6
v -0.3 0.1 1.6
v -0.0999999 0.1 1.6
v 0 0.1 1.6
v 0.1 0.1 1.6
v 0.2 0.1 1.6
v 0.7 0.1 1.6
v 0.8 0.1 1.6
v -1.2 0.1 1.5
v -1.1 0.1 1.5
v -0.7 0.1 1.5
v -0.6 0.1 1.5
v -0.0999999 0.1 1.5
v 0 0.1 1.5
v 0.1 0.1 1.5
v 0.2 0.1 1.5
v 0.7 0.1 1.5
v 0.8 0.1 1.5
v -1 0.1 1.4
v -0.9 0.1 1.4
v -0.6 0.1 1.4
v -0.5 0.1 1.4
v -0.4 0.1 1.4
v -0.3 0.1 1.4
v 0 0.1 1.4
v 0.1 0.1 1.4
v -1.2 0.1 1.3
v -1.1 0.1 1.3
v -1 0.1 1.3
v -0.9 0.1 1.3
v -0.8 0.1 1.3
v -0.7 0.1 1.3
v -0.4 0.1 1.3
v -0.3 0.1 1.3
v -0.0999999 0.1 1.3
v 0.1 0.1 1.3
v 0.6 0.1 1.3
v 0.7 0.1 1.3
v 0.8 0.1 1.3
v 0.9 0.1 1.3
v -0.8 0.1 1.2
v -0.7 0.1 1.2
v -0.6 0.1 1.2
v -0.4 0.1 1.2
v -0.3 0.1 1.2
v -0.0999999 0.1 1.2
v 0.1 0.1 1.2
v 0.3 0.1 1.2
v 0.4 0.1 1.2
v 0.8 0.1 1.2
v 0.9 0.1 1.2
v -1 0.1 1.1
v -0.9 0.1 1.1
v -0.7 0.1 1.1
v -0.6 0.1 1.1
v -0.2 0.1 1.1
v -0.0999999 0.1 1.1
v 0.3 0.1 1.1
v 0.4 0.1 1.1
v -1.2 0.1 1
v -1.1 0.1 1
v -0.2 0.1 1
v -0.0999999 0.1 1
v 0.6 0.1 1
v 0.7 0.1 1
v -0.8 0.1 0.9
v 0.7 0.1 0.9
v -0.9 0.1 0.8
v -0.8 0.1 0.8
v 0.7 0.1 0.8
v 0.8 0.1 0.8
v -0.3 0.1 0.3
v -0.0999999 0.1 0.3
v -0.3 0.1 0.2
v -0.0999999 0.1 0.2
v 0 0.1 -0.3
v 0.1 0.1 -0.3
v 0 0.1 -0.4
v 0.1 0.1 -0.4
v -1 0.1 -0.5
v -0.9 0.1 -0.5
v -0.8 0.1 -0.5
v -0.5 0.1 -0.5
v -0.3 0.1 -0.5
v 0.3 0.1 -0.5
v 0.5 0.1 -0.5
v -0.6 0.1 -0.6
v -0.5 0.1 -0.6
v -0.3 0.1 -0.6
v -0.2 0.1 -0.6
v 0.2 0.1 -0.6
v 0.3 0.1 -0.6
v 0.5 0.1 -0.6
v 0.6 0.1 -0.6
v 0.7 0.1 -0.6
v 0.8 0.1 -0.6
v 0.9 0.1 -0.6
v -0.6 0.1 -0.7
v -0.2 0.1 -0.7
v 0.2 0.1 -0.7
v 0.6 0.1 -0.7
v -0.8 0.1 -0.9
v 0.7 0.1 -0.9
v -1 0.1 -1
v -0.9 0.1 -1
v 0.7 0.1 -1
v 0.9 0.1 -1
v -0.9 0.1 -1.1
v 0.7 0.1 -1.1
v -0.9 0.1 -1.3
v -0.6 0.1 -1.3
v -0.5 0.1 -1.3
v -0.4 0.1 -1.3
v -0.3 0.1 -1.3
v -0.2 0.1 -1.3
v 0 0.1 -1.3
v 0.2 0.1 -1.3
v 0.3 0.1 -1.3
v 0.4 0.1 -1.3
v 0.5 0.1 -1.3
v 0.6 0.1 -1.3
v -0.9 0.1 -1.4
v -0.7 0.1 -1.4
v -0.4 0.1 -1.4
v -0.3 0.1 -1.4
v -0.0999999 0.1 -1.4
v 0 0.1 -1.4
v 0.2 0.1 -1.4
v -0.4 0.1 -1.5
v -0.3 0.1 -1.5
v 0.4 0.1 -1.5
v 0.5 0.1 -1.5
v 0.6 0.1 -1.5
v -0.0999999 0.1 -1.6
v 0 0.1 -1.6
v 0.2 0.1 -1.6
v 0.4 0.1 -1.6
v 0.5 0.1 -1.6
v 0.6 0.1 -1.6
v -0.7 0.1 -1.7
v -0.6 0.1 -1.7
v -0.5 0.1 -1.7
v -0.4 0.1 -1.7
v -0.3 0.1 -1.7
v -0.2 0.1 -1.7
v 0 0.1 -1.7
v 0.2 0.1 -1.7
v 0.5 0.1 -1.7
v 0.6 0.1 -1.7
v -0.7 0.1 -1.8
v -0.6 0.1 -1.8
v -0.4 0.1 -1.8
v -0.3 0.1 -1.8
v 0.3 0.1 -1.8
v 0.4 0.1 -1.8
v -0.7 0.1 -1.9
v -0.6 0.1 -1.9
v -1.3 0.1 -2
v 1.2 0.1 -2

# faces
f 3/4/1 2/4/1 1/4/1
f 4/4/1 2/4/1 3/4/1
f 5/4/2 6/4/2 7/4/2
f 7/4/2 6/4/2 8/4/2
f 11/4/3 10/4/3 9/4/3
f 12/4/3 10/4/3 11/4/3
f 13/4/4 14/4/4 15/4/4
f 15/4/4 14/4/4 16/4/4
f 19/4/5 18/4/5 17/4/5
f 20/4/5 18/4/5 19/4/5
f 21/4/5 18/4/5 20/4/5
f 22/4/5 18/4/5 21/4/5
f 23/4/5 18/4/5 22/4/5
f 24/4/5 18/4/5 23/4/5
f 25/4/5 18/4/5 24/4/5
f 26/4/5 18/4/5 25/4/5
f 27/4/5 18/4/5 26/4/5
f 28/4/5 18/4/5 27/4/5
f 29/4/5 18/4/5 28/4/5
f 30/4/5 18/4/5 29/4/5
f 31/4/5 18/4/5 30/4/5
f 32/4/5 18/4/5 31/4/5
f 33/4/5 19/4/5 17/4/5
f 33/6/5 20/6/5 19/6/5
f 34/4/5 21/4/5 20/4/5
f 34/6/5 20/6/5 33/6/5
f 35/4/5 23/4/5 22/4/5
f 35/6/5 24/6/5 23/6/5
f 36/6/5 24/6/5 35/6/5
f 37/4/5 27/4/5 26/4/5
f 37/6/5 28/6/5 27/6/5
f 38/4/5 29/4/5 28/4/5
f 38/6/5 28/6/5 37/6/5
f 39/6/5 30/6/5 29/6/5
f 39/4/5 29/4/5 38/4/5
f 40/4/5 31/4/5 30/4/5
f 40/6/5 30/6/5 39/6/5
f 41/6/5 32/6/5 31/6/5
f 41/4/5 31/4/5 40/4/5
f 42/4/5 18/4/5 32/4/5
f 42/6/5 32/6/5 41/6/5
f 43/6/5 22/6/5 21/6/5
f 43/4/5 21/4/5 34/4/5
f 43/4/5 34/4/5 33/4/5
f 44/4/5 35/4/5 22/4/5
f 44/6/5 22/6/5 43/6/5
f 44/4/5 36/4/5 35/4/5
f 45/6/5 24/6/5 36/6/5
f 45/4/5 36/4/5 44/4/5
f 46/4/5 25/4/5 24/4/5
f 46/6/5 24/6/5 45/6/5
f 47/6/5 26/6/5 25/6/5
f 47/4/5 25/4/5 46/4/5
f 48/4/5 37/4/5 26/4/5
f 48/6/5 26/6/5 47/6/5
f 48/4/5 38/4/5 37/4/5
f 49/6/5 39/6/5 38/6/5
f 49/4/5 38/4/5 48/4/5
f 50/4/5 41/4/5 40/4/5
f 50/6/5 39/6/5 49/6/5
f 50/4/5 40/4/5 39/4/5
f 50/4/5 42/4/5 41/4/5
f 51/4/5 49/4/5 48/4/5
f 51/4/5 47/4/5 46/4/5
f 51/4/5 50/4/5 49/4/5
f 51/4/5 44/4/5 43/4/5
f 51/4/5 46/4/5 45/4/5
f 51/4/5 45/4/5 44/4/5
f 51/4/5 43/4/5 33/4/5
f 51/4/5 48/4/5 47/4/5
f 51/4/5 33/4/5 17/4/5
f 52/4/5 50/4/5 51/4/5
f 53/4/5 50/4/5 52/4/5
f 54/4/5 50/4/5 53/4/5
f 55/4/5 50/4/5 54/4/5
f 56/4/5 50/4/5 55/4/5
f 57/4/5 50/4/5 56/4/5
f 58/4/5 50/4/5 57/4/5
f 59/4/5 50/4/5 58/4/5
f 60/4/5 42/4/5 50/4/5
f 60/4/5 50/4/5 59/4/5
f 61/4/5 42/4/5 60/4/5
f 62/4/5 42/4/5 61/4/5
f 63/4/5 18/4/5 42/4/5
f 63/4/5 42/4/5 62/4/5
f 64/4/5 18/4/5 63/4/5
f 65/4/5 55/4/5 54/4/5
f 65/6/5 56/6/5 55/6/5
f 66/4/5 57/4/5 56/4/5
f 66/6/5 56/6/5 65/6/5
f 67/4/5 57/4/5 66/4/5
f 68/6/5 58/6/5 57/6/5
f 68/4/5 57/4/5 67/4/5
f 69/4/5 59/4/5 58/4/5
f 69/6/5 58/6/5 68/6/5
f 70/6/5 60/6/5 59/6/5
f 70/4/5 59/4/5 69/4/5
f 71/4/5 61/4/5 60/4/5
f 71/6/5 60/6/5 70/6/5
f 72/4/5 61/4/5 71/4/5
f 73/4/5 61/4/5 72/4/5
f 74/6/5 64/6/5 63/6/5
f 74/4/5 63/4/5 62/4/5
f 75/4/5 18/4/5 64/4/5
f 75/6/5 64/6/5 74/6/5
f 76/4/5 53/4/5 52/4/5
f 76/6/5 54/6/5 53/6/5
f 77/4/5 65/4/5 54/4/5
f 77/6/5 54/6/5 76/6/5
f 77/4/5 66/4/5 65/4/5
f 78/6/5 67/6/5 66/6/5
f 78/4/5 66/4/5 77/4/5
f 79/4/5 68/4/5 67/4/5
f 79/6/5 67/6/5 78/6/5
f 79/4/5 69/4/5 68/4/5
f 79/4/5 71/4/5 70/4/5
f 79/4/5 72/4/5 71/4/5
f 79/4/5 70/4/5 69/4/5
f 80/4/5 72/4/5 79/4/5
f 81/4/5 72/4/5 80/4/5
f 82/6/5 73/6/5 72/6/5
f 82/4/5 72/4/5 81/4/5
f 83/4/5 61/4/5 73/4/5
f 83/6/5 73/6/5 82/6/5
f 84/4/5 51/4/5 17/4/5
f 84/6/5 52/6/5 51/6/5
f 85/4/5 78/4/5 77/4/5
f 85/6/5 52/6/5 84/6/5
f 85/4/5 76/4/5 52/4/5
f 85/4/5 80/4/5 79/4/5
f 85/4/5 79/4/5 78/4/5
f 85/4/5 77/4/5 76/4/5
f 86/6/5 81/6/5 80/6/5
f 86/4/5 80/4/5 85/4/5
f 87/4/5 83/4/5 82/4/5
f 87/6/5 81/6/5 86/6/5
f 87/4/5 82/4/5 81/4/5
f 88/6/5 62/6/5 61/6/5
f 88/4/5 83/4/5 87/4/5
f 88/4/5 61/4/5 83/4/5
f 89/4/5 75/4/5 74/4/5
f 89/6/5 62/6/5 88/6/5
f 89/4/5 74/4/5 62/4/5
f 90/4/5 87/4/5 86/4/5
f 90/4/5 85/4/5 84/4/5
f 90/4/5 89/4/5 88/4/5
f 90/4/5 88/4/5 87/4/5
f 90/4/5 86/4/5 85/4/5
f 91/4/5 75/4/5 89/4/5
f 91/4/5 89/4/5 90/4/5
f 92/4/5 90/4/5 84/4/5
f 93/1/5 91/1/5 90/1/5
f 93/4/5 90/4/5 92/4/5
f 94/4/5 75/4/5 91/4/5
f 94/1/5 91/1/5 93/1/5
f 95/4/5 75/4/5 94/4/5
f 96/1/5 93/1/5 92/1/5
f 96/1/5 94/1/5 93/1/5
f 96/1/5 95/1/5 94/1/5
f 97/1/5 95/1/5 96/1/5
f 98/1/5 96/1/5 92/1/5
f 98/5/5 97/5/5 96/5/5
f 99/1/5 95/1/5 97/1/5
f 99/5/5 97/5/5 98/5/5
f 100/1/5 99/1/5 98/1/5
f 100/1/5 95/1/5 99/1/5
f 101/1/5 95/1/5 100/1/5
f 102/1/5 100/1/5 98/1/5
f 102/5/5 101/5/5 100/5/5
f 103/1/5 95/1/5 101/1/5
f 103/5/5 101/5/5 102/5/5
f 104/4/5 92/4/5 84/4/5
f 105/1/5 98/1/5 92/1/5
f 105/4/5 92/4/5 104/4/5
f 105/1/5 102/1/5 98/1/5
f 105/1/5 103/1/5 102/1/5
f 106/1/5 103/1/5 105/1/5
f 107/1/5 103/1/5 106/1/5
f 108/1/5 103/1/5 107/1/5
f 109/1/5 95/1/5 103/1/5
f 109/1/5 103/1/5 108/1/5
f 110/1/5 95/1/5 109/1/5
f 111/1/5 107/1/5 106/1/5
f 112/5/5 108/5/5 107/5/5
f 112/1/5 107/1/5 111/1/5
f 113/1/5 109/1/5 108/1/5
f 113/5/5 108/5/5 112/5/5
f 114/1/5 109/1/5 113/1/5
f 115/1/5 109/1/5 114/1/5
f 116/5/5 110/5/5 109/5/5
f 116/1/5 109/1/5 115/1/5
f 117/1/5 95/1/5 110/1/5
f 117/5/5 110/5/5 116/5/5
f 118/1/5 95/1/5 117/1/5
f 119/1/5 95/1/5 118/1/5
f 120/4/5 75/4/5 95/4/5
f 120/1/5 95/1/5 119/1/5
f 121/4/5 18/4/5 75/4/5
f 121/4/5 75/4/5 120/4/5
f 122/1/5 111/1/5 106/1/5
f 122/5/5 112/5/5 111/5/5
f 122/5/5 113/5/5 112/5/5
f 122/5/5 114/5/5 113/5/5
f 123/1/5 115/1/5 114/1/5
f 123/5/5 114/5/5 122/5/5
f 124/5/5 116/5/5 115/5/5
f 124/1/5 115/1/5 123/1/5
f 124/5/5 118/5/5 117/5/5
f 124/5/5 117/5/5 116/5/5
f 125/1/5 119/1/5 118/1/5
f 125/5/5 118/5/5 124/5/5
f 126/1/5 124/1/5 123/1/5
f 126/2/5 105/2/5 104/2/5
f 126/1/5 125/1/5 124/1/5
f 126/1/5 122/1/5 106/1/5
f 126/2/5 106/2/5 105/2/5
f 126/1/5 123/1/5 122/1/5
f 127/1/5 119/1/5 125/1/5
f 127/1/5 125/1/5 126/1/5
f 127/2/5 120/2/5 119/2/5
f 127/2/5 121/2/5 120/2/5
f 128/2/5 126/2/5 104/2/5
f 128/4/5 104/4/5 84/4/5
f 128/2/5 127/2/5 126/2/5
f 129/2/5 127/2/5 128/2/5
f 130/2/5 121/2/5 127/2/5
f 130/2/5 127/2/5 129/2/5
f 131/4/5 18/4/5 121/4/5
f 131/2/5 121/2/5 130/2/5
f 132/4/5 129/4/5 128/4/5
f 132/2/5 130/2/5 129/2/5
f 133/4/5 131/4/5 130/4/5
f 133/2/5 130/2/5 132/2/5
f 134/4/5 132/4/5 128/4/5
f 134/4/5 133/4/5 132/4/5
f 135/4/5 133/4/5 134/4/5
f 136/4/5 133/4/5 135/4/5
f 137/4/5 133/4/5 136/4/5
f 138/4/5 133/4/5 137/4/5
f 139/4/5 133/4/5 138/4/5
f 140/4/5 133/4/5 139/4/5
f 141/4/5 133/4/5 140/4/5
f 142/4/5 133/4/5 141/4/5
f 143/4/5 133/4/5 142/4/5
f 144/4/5 133/4/5 143/4/5
f 145/4/5 133/4/5 144/4/5
f 146/4/5 134/4/5 128/4/5
f 146/3/5 135/3/5 134/3/5
f 147/3/5 135/3/5 146/3/5
f 148/3/5 137/3/5 136/3/5
f 148/4/5 138/4/5 137/4/5
f 149/3/5 139/3/5 138/3/5
f 149/4/5 138/4/5 148/4/5
f 150/4/5 140/4/5 139/4/5
f 151/3/5 141/3/5 140/3/5
f 151/4/5 140/4/5 150/4/5
f 152/4/5 142/4/5 141/4/5
f 152/3/5 141/3/5 151/3/5
f 153/3/5 148/3/5 136/3/5
f 153/3/5 149/3/5 148/3/5
f 154/3/5 139/3/5 149/3/5
f 154/3/5 149/3/5 153/3/5
f 155/3/5 143/3/5 142/3/5
f 155/4/5 144/4/5 143/4/5
f 156/3/5 145/3/5 144/3/5
f 156/4/5 144/4/5 155/4/5
f 157/4/5 133/4/5 145/4/5
f 157/3/5 145/3/5 156/3/5
f 158/4/5 150/4/5 139/4/5
f 158/3/5 151/3/5 150/3/5
f 159/4/5 152/4/5 151/4/5
f 159/3/5 151/3/5 158/3/5
f 160/4/5 142/4/5 152/4/5
f 160/4/5 152/4/5 159/4/5
f 161/3/5 156/3/5 155/3/5
f 161/3/5 155/3/5 142/3/5
f 162/4/5 157/4/5 156/4/5
f 162/3/5 156/3/5 161/3/5
f 163/4/5 133/4/5 157/4/5
f 163/4/5 157/4/5 162/4/5
f 164/3/5 135/3/5 147/3/5
f 164/4/5 147/4/5 146/4/5
f 165/4/5 136/4/5 135/4/5
f 165/3/5 135/3/5 164/3/5
f 166/3/5 153/3/5 136/3/5
f 166/4/5 136/4/5 165/4/5
f 167/4/5 154/4/5 153/4/5
f 167/3/5 153/3/5 166/3/5
f 168/3/5 139/3/5 154/3/5
f 168/4/5 154/4/5 167/4/5
f 169/4/5 159/4/5 158/4/5
f 169/3/5 139/3/5 168/3/5
f 169/4/5 158/4/5 139/4/5
f 170/3/5 160/3/5 159/3/5
f 170/4/5 159/4/5 169/4/5
f 171/4/5 142/4/5 160/4/5
f 171/3/5 160/3/5 170/3/5
f 172/3/5 163/3/5 162/3/5
f 172/4/5 162/4/5 161/4/5
f 173/4/5 133/4/5 163/4/5
f 173/3/5 163/3/5 172/3/5
f 174/4/5 164/4/5 146/4/5
f 174/4/5 165/4/5 164/4/5
f 174/4/5 167/4/5 166/4/5
f 174/4/5 166/4/5 165/4/5
f 175/4/5 167/4/5 174/4/5
f 176/3/5 168/3/5 167/3/5
f 176/4/5 167/4/5 175/4/5
f 177/4/5 170/4/5 169/4/5
f 177/3/5 168/3/5 176/3/5
f 177/4/5 169/4/5 168/4/5
f 177/4/5 171/4/5 170/4/5
f 178/4/5 142/4/5 171/4/5
f 178/4/5 171/4/5 177/4/5
f 178/3/5 161/3/5 142/3/5
f 179/4/5 172/4/5 161/4/5
f 179/3/5 161/3/5 178/3/5
f 179/4/5 173/4/5 172/4/5
f 180/4/5 174/4/5 146/4/5
f 180/3/5 175/3/5 174/3/5
f 181/4/5 176/4/5 175/4/5
f 181/3/5 175/3/5 180/3/5
f 181/4/5 178/4/5 177/4/5
f 181/4/5 177/4/5 176/4/5
f 181/4/5 179/4/5 178/4/5
f 182/4/5 84/4/5 17/4/5
f 182/4/5 128/4/5 84/4/5
f 182/4/5 181/4/5 180/4/5
f 182/4/5 146/4/5 128/4/5
f 182/4/5 180/4/5 146/4/5
f 183/4/5 179/4/5 181/4/5
f 183/4/5 181/4/5 182/4/5
f 183/4/5 18/4/5 131/4/5
f 183/4/5 173/4/5 179/4/5
f 183/4/5 133/4/5 173/4/5
f 183/4/5 131/4/5 133/4/5
f 184/4/6 185/4/6 186/4/6
f 186/4/6 185/4/6 187/4/6
f 187/4/6 185/4/6 188/4/6
f 188/4/6 185/4/6 189/4/6
f 189/4/6 185/4/6 190/4/6
f 190/4/6 185/4/6 191/4/6
f 191/4/6 185/4/6 192/4/6
f 192/4/6 185/4/6 193/4/6
f 193/4/6 185/4/6 194/4/6
f 194/4/6 185/4/6 195/4/6
f 195/4/6 185/4/6 196/4/6
f 196/4/6 185/4/6 197/4/6
f 197/4/6 185/4/6 198/4/6
f 198/4/6 185/4/6 199/4/6
f 184/4/6 186/4/6 200/4/6
f 186/6/6 187/6/6 200/6/6
f 187/4/6 188/4/6 201/4/6
f 200/6/6 187/6/6 201/6/6
f 189/4/6 190/4/6 202/4/6
f 190/6/6 191/6/6 202/6/6
f 202/6/6 191/6/6 203/6/6
f 193/4/6 194/4/6 204/4/6
f 194/6/6 195/6/6 204/6/6
f 195/4/6 196/4/6 205/4/6
f 204/6/6 195/6/6 205/6/6
f 196/6/6 197/6/6 206/6/6
f 205/4/6 196/4/6 206/4/6
f 197/4/6 198/4/6 207/4/6
f 206/6/6 197/6/6 207/6/6
f 198/6/6 199/6/6 208/6/6
f 207/4/6 198/4/6 208/4/6
f 199/4/6 185/4/6 209/4/6
f 208/6/6 199/6/6 209/6/6
f 188/6/6 189/6/6 210/6/6
f 201/4/6 188/4/6 210/4/6
f 200/4/6 201/4/6 210/4/6
f 189/4/6 202/4/6 211/4/6
f 210/6/6 189/6/6 211/6/6
f 202/4/6 203/4/6 211/4/6
f 203/6/6 191/6/6 212/6/6
f 211/4/6 203/4/6 212/4/6
f 191/4/6 192/4/6 213/4/6
f 212/6/6 191/6/6 213/6/6
f 192/6/6 193/6/6 214/6/6
f 213/4/6 192/4/6 214/4/6
f 193/4/6 204/4/6 215/4/6
f 214/6/6 193/6/6 215/6/6
f 204/4/6 205/4/6 215/4/6
f 205/6/6 206/6/6 216/6/6
f 215/4/6 205/4/6 216/4/6
f 207/4/6 208/4/6 217/4/6
f 216/6/6 206/6/6 217/6/6
f 206/4/6 207/4/6 217/4/6
f 208/4/6 209/4/6 217/4/6
f 215/4/6 216/4/6 218/4/6
f 213/4/6 214/4/6 218/4/6
f 216/4/6 217/4/6 218/4/6
f 210/4/6 211/4/6 218/4/6
f 212/4/6 213/4/6 218/4/6
f 211/4/6 212/4/6 218/4/6
f 200/4/6 210/4/6 218/4/6
f 214/4/6 215/4/6 218/4/6
f 184/4/6 200/4/6 218/4/6
f 218/4/6 217/4/6 219/4/6
f 219/4/6 217/4/6 220/4/6
f 220/4/6 217/4/6 221/4/6
f 221/4/6 217/4/6 222/4/6
f 222/4/6 217/4/6 223/4/6
f 223/4/6 217/4/6 224/4/6
f 224/4/6 217/4/6 225/4/6
f 225/4/6 217/4/6 226/4/6
f 217/4/6 209/4/6 227/4/6
f 226/4/6 217/4/6 227/4/6
f 227/4/6 209/4/6 228/4/6
f 228/4/6 209/4/6 229/4/6
f 209/4/6 185/4/6 230/4/6
f 229/4/6 209/4/6 230/4/6
f 230/4/6 185/4/6 231/4/6
f 221/4/6 222/4/6 232/4/6
f 222/6/6 223/6/6 232/6/6
f 223/4/6 224/4/6 233/4/6
f 232/6/6 223/6/6 233/6/6
f 233/4/6 224/4/6 234/4/6
f 224/6/6 225/6/6 235/6/6
f 234/4/6 224/4/6 235/4/6
f 225/4/6 226/4/6 236/4/6
f 235/6/6 225/6/6 236/6/6
f 226/6/6 227/6/6 237/6/6
f 236/4/6 226/4/6 237/4/6
f 227/4/6 228/4/6 238/4/6
f 237/6/6 227/6/6 238/6/6
f 238/4/6 228/4/6 239/4/6
f 239/4/6 228/4/6 240/4/6
f 230/6/6 231/6/6 241/6/6
f 229/4/6 230/4/6 241/4/6
f 231/4/6 185/4/6 242/4/6
f 241/6/6 231/6/6 242/6/6
f 219/4/6 220/4/6 243/4/6
f 220/6/6 221/6/6 243/6/6
f 221/4/6 232/4/6 244/4/6
f 243/6/6 221/6/6 244/6/6
f 232/4/6 233/4/6 244/4/6
f 233/6/6 234/6/6 245/6/6
f 244/4/6 233/4/6 245/4/6
f 234/4/6 235/4/6 246/4/6
f 245/6/6 234/6/6 246/6/6
f 235/4/6 236/4/6 246/4/6
f 237/4/6 238/4/6 246/4/6
f 238/4/6 239/4/6 246/4/6
f 236/4/6 237/4/6 246/4/6
f 246/4/6 239/4/6 247/4/6
f 247/4/6 239/4/6 248/4/6
f 239/6/6 240/6/6 249/6/6
f 248/4/6 239/4/6 249/4/6
f 240/4/6 228/4/6 250/4/6
f 249/6/6 240/6/6 250/6/6
f 184/4/6 218/4/6 251/4/6
f 218/6/6 219/6/6 251/6/6
f 244/4/6 245/4/6 252/4/6
f 251/6/6 219/6/6 252/6/6
f 219/4/6 243/4/6 252/4/6
f 246/4/6 247/4/6 252/4/6
f 245/4/6 246/4/6 252/4/6
f 243/4/6 244/4/6 252/4/6
f 247/6/6 248/6/6 253/6/6
f 252/4/6 247/4/6 253/4/6
f 249/4/6 250/4/6 254/4/6
f 253/6/6 248/6/6 254/6/6
f 248/4/6 249/4/6 254/4/6
f 228/6/6 229/6/6 255/6/6
f 254/4/6 250/4/6 255/4/6
f 250/4/6 228/4/6 255/4/6
f 241/4/6 242/4/6 256/4/6
f 255/6/6 229/6/6 256/6/6
f 229/4/6 241/4/6 256/4/6
f 253/4/6 254/4/6 257/4/6
f 251/4/6 252/4/6 257/4/6
f 255/4/6 256/4/6 257/4/6
f 254/4/6 255/4/6 257/4/6
f 252/4/6 253/4/6 257/4/6
f 256/4/6 242/4/6 258/4/6
f 257/4/6 256/4/6 258/4/6
f 251/4/6 257/4/6 259/4/6
f 257/1/6 258/1/6 260/1/6
f 259/4/6 257/4/6 260/4/6
f 258/4/6 242/4/6 261/4/6
f 260/1/6 258/1/6 261/1/6
f 261/4/6 242/4/6 262/4/6
f 259/1/6 260/1/6 263/1/6
f 260/1/6 261/1/6 263/1/6
f 261/1/6 262/1/6 263/1/6
f 263/1/6 262/1/6 264/1/6
f 259/1/6 263/1/6 265/1/6
f 263/5/6 264/5/6 265/5/6
f 264/1/6 262/1/6 266/1/6
f 265/5/6 264/5/6 266/5/6
f 265/1/6 266/1/6 267/1/6
f 266/1/6 262/1/6 267/1/6
f 267/1/6 262/1/6 268/1/6
f 265/1/6 267/1/6 269/1/6
f 267/5/6 268/5/6 269/5/6
f 268/1/6 262/1/6 270/1/6
f 269/5/6 268/5/6 270/5/6
f 251/4/6 259/4/6 271/4/6
f 259/1/6 265/1/6 272/1/6
f 271/4/6 259/4/6 272/4/6
f 265/1/6 269/1/6 272/1/6
f 269/1/6 270/1/6 272/1/6
f 272/1/6 270/1/6 273/1/6
f 273/1/6 270/1/6 274/1/6
f 274/1/6 270/1/6 275/1/6
f 270/1/6 262/1/6 276/1/6
f 275/1/6 270/1/6 276/1/6
f 276/1/6 262/1/6 277/1/6
f 273/1/6 274/1/6 278/1/6
f 274/5/6 275/5/6 279/5/6
f 278/1/6 274/1/6 279/1/6
f 275/1/6 276/1/6 280/1/6
f 279/5/6 275/5/6 280/5/6
f 280/1/6 276/1/6 281/1/6
f 281/1/6 276/1/6 282/1/6
f 276/5/6 277/5/6 283/5/6
f 282/1/6 276/1/6 283/1/6
f 277/1/6 262/1/6 284/1/6
f 283/5/6 277/5/6 284/5/6
f 284/1/6 262/1/6 285/1/6
f 285/1/6 262/1/6 286/1/6
f 262/4/6 242/4/6 287/4/6
f 286/1/6 262/1/6 287/1/6
f 242/4/6 185/4/6 288/4/6
f 287/4/6 242/4/6 288/4/6
f 273/1/6 278/1/6 289/1/6
f 278/5/6 279/5/6 289/5/6
f 279/5/6 280/5/6 289/5/6
f 280/5/6 281/5/6 289/5/6
f 281/1/6 282/1/6 290/1/6
f 289/5/6 281/5/6 290/5/6
f 282/5/6 283/5/6 291/5/6
f 290/1/6 282/1/6 291/1/6
f 284/5/6 285/5/6 291/5/6
f 283/5/6 284/5/6 291/5/6
f 285/1/6 286/1/6 292/1/6
f 291/5/6 285/5/6 292/5/6
f 290/1/6 291/1/6 293/1/6
f 271/2/6 272/2/6 293/2/6
f 291/1/6 292/1/6 293/1/6
f 273/1/6 289/1/6 293/1/6
f 272/2/6 273/2/6 293/2/6
f 289/1/6 290/1/6 293/1/6
f 292/1/6 286/1/6 294/1/6
f 293/1/6 292/1/6 294/1/6
f 286/2/6 287/2/6 294/2/6
f 287/2/6 288/2/6 294/2/6
f 271/2/6 293/2/6 295/2/6
f 251/4/6 271/4/6 295/4/6
f 293/2/6 294/2/6 295/2/6
f 295/2/6 294/2/6 296/2/6
f 294/2/6 288/2/6 297/2/6
f 296/2/6 294/2/6 297/2/6
f 288/4/6 185/4/6 298/4/6
f 297/2/6 288/2/6 298/2/6
f 295/4/6 296/4/6 299/4/6
f 296/2/6 297/2/6 299/2/6
f 297/4/6 298/4/6 300/4/6
f 299/2/6 297/2/6 300/2/6
f 295/4/6 299/4/6 301/4/6
f 299/4/6 300/4/6 301/4/6
f 301/4/6 300/4/6 302/4/6
f 302/4/6 300/4/6 303/4/6
f 303/4/6 300/4/6 304/4/6
f 304/4/6 300/4/6 305/4/6
f 305/4/6 300/4/6 306/4/6
f 306/4/6 300/4/6 307/4/6
f 307/4/6 300/4/6 308/4/6
f 308/4/6 300/4/6 309/4/6
f 309/4/6 300/4/6 310/4/6
f 310/4/6 300/4/6 311/4/6
f 311/4/6 300/4/6 312/4/6
f 295/4/6 301/4/6 313/4/6
f 301/3/6 302/3/6 313/3/6
f 313/3/6 302/3/6 314/3/6
f 303/3/6 304/3/6 315/3/6
f 304/4/6 305/4/6 315/4/6
f 305/3/6 306/3/6 316/3/6
f 315/4/6 305/4/6 316/4/6
f 306/4/6 307/4/6 317/4/6
f 307/3/6 308/3/6 318/3/6
f 317/4/6 307/4/6 318/4/6
f 308/4/6 309/4/6 319/4/6
f 318/3/6 308/3/6 319/3/6
f 303/3/6 315/3/6 320/3/6
f 315/3/6 316/3/6 320/3/6
f 316/3/6 306/3/6 321/3/6
f 320/3/6 316/3/6 321/3/6
f 309/3/6 310/3/6 322/3/6
f 310/4/6 311/4/6 322/4/6
f 311/3/6 312/3/6 323/3/6
f 322/4/6 311/4/6 323/4/6
f 312/4/6 300/4/6 324/4/6
f 323/3/6 312/3/6 324/3/6
f 306/4/6 317/4/6 325/4/6
f 317/3/6 318/3/6 325/3/6
f 318/4/6 319/4/6 326/4/6
f 325/3/6 318/3/6 326/3/6
f 319/4/6 309/4/6 327/4/6
f 326/4/6 319/4/6 327/4/6
f 322/3/6 323/3/6 328/3/6
f 309/3/6 322/3/6 328/3/6
f 323/4/6 324/4/6 329/4/6
f 328/3/6 323/3/6 329/3/6
f 324/4/6 300/4/6 330/4/6
f 329/4/6 324/4/6 330/4/6
f 314/3/6 302/3/6 331/3/6
f 313/4/6 314/4/6 331/4/6
f 302/4/6 303/4/6 332/4/6
f 331/3/6 302/3/6 332/3/6
f 303/3/6 320/3/6 333/3/6
f 332/4/6 303/4/6 333/4/6
f 320/4/6 321/4/6 334/4/6
f 333/3/6 320/3/6 334/3/6
f 321/3/6 306/3/6 335/3/6
f 334/4/6 321/4/6 335/4/6
f 325/4/6 326/4/6 336/4/6
f 335/3/6 306/3/6 336/3/6
f 306/4/6 325/4/6 336/4/6
f 326/3/6 327/3/6 337/3/6
f 336/4/6 326/4/6 337/4/6
f 327/4/6 309/4/6 338/4/6
f 337/3/6 327/3/6 338/3/6
f 329/3/6 330/3/6 339/3/6
f 328/4/6 329/4/6 339/4/6
f 330/4/6 300/4/6 340/4/6
f 339/3/6 330/3/6 340/3/6
f 313/4/6 331/4/6 341/4/6
f 331/4/6 332/4/6 341/4/6
f 333/4/6 334/4/6 341/4/6
f 332/4/6 333/4/6 341/4/6
f 341/4/6 334/4/6 342/4/6
f 334/3/6 335/3/6 343/3/6
f 342/4/6 334/4/6 343/4/6
f 336/4/6 337/4/6 344/4/6
f 343/3/6 335/3/6 344/3/6
f 335/4/6 336/4/6 344/4/6
f 337/4/6 338/4/6 344/4/6
f 338/4/6 309/4/6 345/4/6
f 344/4/6 338/4/6 345/4/6
f 309/3/6 328/3/6 345/3/6
f 328/4/6 339/4/6 346/4/6
f 345/3/6 328/3/6 346/3/6
f 339/4/6 340/4/6 346/4/6
f 313/4/6 341/4/6 347/4/6
f 341/3/6 342/3/6 347/3/6
f 342/4/6 343/4/6 348/4/6
f 347/3/6 342/3/6 348/3/6
f 344/4/6 345/4/6 348/4/6
f 343/4/6 344/4/6 348/4/6
f 345/4/6 346/4/6 348/4/6
f 184/4/6 251/4/6 349/4/6
f 251/4/6 295/4/6 349/4/6
f 347/4/6 348/4/6 349/4/6
f 295/4/6 313/4/6 349/4/6
f 313/4/6 347/4/6 349/4/6
f 348/4/6 346/4/6 350/4/6
f 349/4/6 348/4/6 350/4/6
f 298/4/6 185/4/6 350/4/6
f 346/4/6 340/4/6 350/4/6
f 340/4/6 300/4/6 350/4/6
f 300/4/6 298/4/6 350/4/6
