# MagicaVoxel @ Ephtracy

# group
o 

# material
mtllib screen.mtl
usemtl palette

# normals
vn -1 0 0
vn 1 0 0
vn 0 0 1
vn 0 0 -1
vn 0 -1 0
vn 0 1 0

# texcoords
vt 0.841797 0.5
vt 0.990234 0.5
vt 0.994141 0.5

# verts
v -1.1 1.5 0.1
v -1.1 1.5 1.49012e-08
v -1.1 3.2 0.1
v -1.1 3.2 1.49012e-08
v 1.2 1.5 0.1
v 1.2 1.5 1.49012e-08
v 1.2 3.2 0.1
v 1.2 3.2 1.49012e-08
v -1.1 1.5 0.1
v -1.1 3.2 0.1
v -0.6 1.8 0.1
v -0.6 2.3 0.1
v -0.6 2.4 0.1
v -0.6 2.9 0.1
v -0.5 1.9 0.1
v -0.5 2.3 0.1
v -0.5 2.4 0.1
v -0.5 2.8 0.1
v -0.2 1.9 0.1
v -0.2 2.3 0.1
v -0.2 2.4 0.1
v -0.2 2.8 0.1
v -0.1 1.8 0.1
v -0.1 2.3 0.1
v -0.1 2.4 0.1
v -0.1 2.9 0.1
v 0.4 1.8 0.1
v 0.4 2.9 0.1
v 0.5 1.8 0.1
v 0.5 2.9 0.1
v 1 1.5 0.1
v 1 3.2 0.1
v 1.2 1.5 0.1
v 1.2 3.2 0.1
v -1.1 1.5 1.49012e-08
v -1.1 3.2 1.49012e-08
v -0.6 1.8 1.49012e-08
v -0.6 2.3 1.49012e-08
v -0.6 2.4 1.49012e-08
v -0.6 2.9 1.49012e-08
v -0.5 1.9 1.49012e-08
v -0.5 2.3 1.49012e-08
v -0.5 2.4 1.49012e-08
v -0.5 2.8 1.49012e-08
v -0.2 1.9 1.49012e-08
v -0.2 2.3 1.49012e-08
v -0.2 2.4 1.49012e-08
v -0.2 2.8 1.49012e-08
v -0.1 1.8 1.49012e-08
v -0.1 2.3 1.49012e-08
v -0.1 2.4 1.49012e-08
v -0.1 2.9 1.49012e-08
v 0.4 1.8 1.49012e-08
v 0.4 2.9 1.49012e-08
v 0.5 1.8 1.49012e-08
v 0.5 2.9 1.49012e-08
v 1 1.5 1.49012e-08
v 1 3.2 1.49012e-08
v 1.2 1.5 1.49012e-08
v 1.2 3.2 1.49012e-08
v -1.1 1.5 0.1
v 1 1.5 0.1
v 1.2 1.5 0.1
v -1.1 1.5 1.49012e-08
v 1 1.5 1.49012e-08
v 1.2 1.5 1.49012e-08
v -1.1 3.2 0.1
v 1 3.2 0.1
v 1.2 3.2 0.1
v -1.1 3.2 1.49012e-08
v 1 3.2 1.49012e-08
v 1.2 3.2 1.49012e-08

# faces
f 3/3/1 2/3/1 1/3/1
f 4/3/1 2/3/1 3/3/1
f 5/2/2 6/2/2 7/2/2
f 7/2/2 6/2/2 8/2/2
f 11/3/3 10/3/3 9/3/3
f 12/3/3 10/3/3 11/3/3
f 13/3/3 10/3/3 12/3/3
f 14/3/3 10/3/3 13/3/3
f 15/1/3 12/1/3 11/1/3
f 16/3/3 13/3/3 12/3/3
f 16/1/3 12/1/3 15/1/3
f 17/1/3 14/1/3 13/1/3
f 17/3/3 13/3/3 16/3/3
f 18/1/3 14/1/3 17/1/3
f 19/1/3 15/1/3 11/1/3
f 19/3/3 16/3/3 15/3/3
f 19/3/3 18/3/3 17/3/3
f 19/3/3 17/3/3 16/3/3
f 20/3/3 18/3/3 19/3/3
f 21/3/3 18/3/3 20/3/3
f 22/1/3 14/1/3 18/1/3
f 22/3/3 18/3/3 21/3/3
f 23/3/3 11/3/3 9/3/3
f 23/1/3 19/1/3 11/1/3
f 23/1/3 20/1/3 19/1/3
f 24/3/3 21/3/3 20/3/3
f 24/1/3 20/1/3 23/1/3
f 25/1/3 22/1/3 21/1/3
f 25/3/3 21/3/3 24/3/3
f 26/1/3 14/1/3 22/1/3
f 26/1/3 22/1/3 25/1/3
f 26/3/3 10/3/3 14/3/3
f 27/3/3 25/3/3 24/3/3
f 27/3/3 24/3/3 23/3/3
f 27/3/3 26/3/3 25/3/3
f 27/3/3 23/3/3 9/3/3
f 28/3/3 10/3/3 26/3/3
f 28/3/3 26/3/3 27/3/3
f 29/3/3 27/3/3 9/3/3
f 29/1/3 28/1/3 27/1/3
f 30/3/3 10/3/3 28/3/3
f 30/1/3 28/1/3 29/1/3
f 31/3/3 29/3/3 9/3/3
f 31/3/3 30/3/3 29/3/3
f 32/3/3 10/3/3 30/3/3
f 32/3/3 30/3/3 31/3/3
f 33/2/3 32/2/3 31/2/3
f 34/2/3 32/2/3 33/2/3
f 35/3/4 36/3/4 37/3/4
f 37/3/4 36/3/4 38/3/4
f 38/3/4 36/3/4 39/3/4
f 39/3/4 36/3/4 40/3/4
f 37/1/4 38/1/4 41/1/4
f 38/3/4 39/3/4 42/3/4
f 41/1/4 38/1/4 42/1/4
f 39/1/4 40/1/4 43/1/4
f 42/3/4 39/3/4 43/3/4
f 43/1/4 40/1/4 44/1/4
f 37/1/4 41/1/4 45/1/4
f 41/3/4 42/3/4 45/3/4
f 43/3/4 44/3/4 45/3/4
f 42/3/4 43/3/4 45/3/4
f 45/3/4 44/3/4 46/3/4
f 46/3/4 44/3/4 47/3/4
f 44/1/4 40/1/4 48/1/4
f 47/3/4 44/3/4 48/3/4
f 35/3/4 37/3/4 49/3/4
f 37/1/4 45/1/4 49/1/4
f 45/1/4 46/1/4 49/1/4
f 46/3/4 47/3/4 50/3/4
f 49/1/4 46/1/4 50/1/4
f 47/1/4 48/1/4 51/1/4
f 50/3/4 47/3/4 51/3/4
f 48/1/4 40/1/4 52/1/4
f 51/1/4 48/1/4 52/1/4
f 40/3/4 36/3/4 52/3/4
f 50/3/4 51/3/4 53/3/4
f 49/3/4 50/3/4 53/3/4
f 51/3/4 52/3/4 53/3/4
f 35/3/4 49/3/4 53/3/4
f 52/3/4 36/3/4 54/3/4
f 53/3/4 52/3/4 54/3/4
f 35/3/4 53/3/4 55/3/4
f 53/1/4 54/1/4 55/1/4
f 54/3/4 36/3/4 56/3/4
f 55/1/4 54/1/4 56/1/4
f 35/3/4 55/3/4 57/3/4
f 55/3/4 56/3/4 57/3/4
f 56/3/4 36/3/4 58/3/4
f 57/3/4 56/3/4 58/3/4
f 57/2/4 58/2/4 59/2/4
f 59/2/4 58/2/4 60/2/4
f 64/3/5 62/3/5 61/3/5
f 65/2/5 63/2/5 62/2/5
f 65/3/5 62/3/5 64/3/5
f 66/2/5 63/2/5 65/2/5
f 67/3/6 68/3/6 70/3/6
f 68/2/6 69/2/6 71/2/6
f 70/3/6 68/3/6 71/3/6
f 71/2/6 69/2/6 72/2/6
