# MagicaVoxel @ Ephtracy

# group
o 

# material
mtllib thiefHead.mtl
usemtl palette

# normals
vn -1 0 0
vn 1 0 0
vn 0 0 1
vn 0 0 -1
vn 0 -1 0
vn 0 1 0

# texcoords
vt 0.0605469 0.5
vt 0.958984 0.5
vt 0.982422 0.5
vt 0.986328 0.5
vt 0.990234 0.5
vt 0.994141 0.5

# verts
v -0.6 4.3 0.2
v -0.6 4.3 0.0999998
v -0.6 4.3 -1.49012e-07
v -0.6 4.3 -0.2
v -0.6 4.3 -0.3
v -0.6 4.3 -0.5
v -0.6 4.3 -0.6
v -0.6 4.3 -0.7
v -0.6 4.6 0.2
v -0.6 4.6 0.0999998
v -0.6 4.6 -1.49012e-07
v -0.6 4.6 -0.2
v -0.6 4.6 -0.3
v -0.6 4.6 -0.5
v -0.6 4.6 -0.6
v -0.6 4.6 -0.7
v -0.5 3.6 0.2
v -0.5 3.6 -0.7
v -0.5 4.3 0.3
v -0.5 4.3 0.2
v -0.5 4.3 0.0999998
v -0.5 4.3 -1.49012e-07
v -0.5 4.3 -0.2
v -0.5 4.3 -0.3
v -0.5 4.3 -0.5
v -0.5 4.3 -0.6
v -0.5 4.3 -0.7
v -0.5 4.3 -0.8
v -0.5 4.6 0.3
v -0.5 4.6 0.2
v -0.5 4.6 0.0999998
v -0.5 4.6 -1.49012e-07
v -0.5 4.6 -0.2
v -0.5 4.6 -0.3
v -0.5 4.6 -0.5
v -0.5 4.6 -0.6
v -0.5 4.6 -0.7
v -0.5 4.6 -0.8
v -0.5 4.8 0.0999998
v -0.5 4.8 -1.49012e-07
v -0.5 4.8 -0.5
v -0.5 4.8 -0.6
v -0.5 5 -1.49012e-07
v -0.5 5 -0.5
v -0.4 3.5 0.0999998
v -0.4 3.5 -0.6
v -0.4 3.6 0.0999998
v -0.4 3.6 -0.6
v -0.4 4.6 0.2
v -0.4 4.6 0.0999998
v -0.4 4.6 -0.6
v -0.4 4.6 -0.7
v -0.4 4.8 0.2
v -0.4 4.8 0.0999998
v -0.4 4.8 -1.49012e-07
v -0.4 4.8 -0.5
v -0.4 4.8 -0.6
v -0.4 4.8 -0.7
v -0.4 5 0.0999998
v -0.4 5 -1.49012e-07
v -0.4 5 -0.5
v -0.4 5 -0.6
v -0.3 4.8 0.2
v -0.3 4.8 0.0999998
v -0.3 4.8 -0.6
v -0.3 4.8 -0.7
v -0.3 5 0.2
v -0.3 5 0.0999998
v -0.3 5 -0.6
v -0.3 5 -0.7
v 0.4 4.8 0.2
v 0.4 4.8 0.0999998
v 0.4 4.8 -0.6
v 0.4 4.8 -0.7
v 0.4 5 0.2
v 0.4 5 0.0999998
v 0.4 5 -0.6
v 0.4 5 -0.7
v 0.5 3.5 0.0999998
v 0.5 3.5 -0.6
v 0.5 3.6 0.0999998
v 0.5 3.6 -0.6
v 0.5 4.6 0.2
v 0.5 4.6 0.0999998
v 0.5 4.6 -0.6
v 0.5 4.6 -0.7
v 0.5 4.8 0.2
v 0.5 4.8 0.0999998
v 0.5 4.8 -1.49012e-07
v 0.5 4.8 -0.5
v 0.5 4.8 -0.6
v 0.5 4.8 -0.7
v 0.5 5 0.0999998
v 0.5 5 -1.49012e-07
v 0.5 5 -0.5
v 0.5 5 -0.6
v 0.6 3.6 0.2
v 0.6 3.6 -0.7
v 0.6 4.3 0.3
v 0.6 4.3 0.2
v 0.6 4.3 0.0999998
v 0.6 4.3 -1.49012e-07
v 0.6 4.3 -0.2
v 0.6 4.3 -0.3
v 0.6 4.3 -0.5
v 0.6 4.3 -0.6
v 0.6 4.3 -0.7
v 0.6 4.3 -0.8
v 0.6 4.6 0.3
v 0.6 4.6 0.2
v 0.6 4.6 0.0999998
v 0.6 4.6 -1.49012e-07
v 0.6 4.6 -0.2
v 0.6 4.6 -0.3
v 0.6 4.6 -0.5
v 0.6 4.6 -0.6
v 0.6 4.6 -0.7
v 0.6 4.6 -0.8
v 0.6 4.8 0.0999998
v 0.6 4.8 -1.49012e-07
v 0.6 4.8 -0.5
v 0.6 4.8 -0.6
v 0.6 5 -1.49012e-07
v 0.6 5 -0.5
v 0.7 4.3 0.2
v 0.7 4.3 0.0999998
v 0.7 4.3 -1.49012e-07
v 0.7 4.3 -0.2
v 0.7 4.3 -0.3
v 0.7 4.3 -0.5
v 0.7 4.3 -0.6
v 0.7 4.3 -0.7
v 0.7 4.6 0.2
v 0.7 4.6 0.0999998
v 0.7 4.6 -1.49012e-07
v 0.7 4.6 -0.2
v 0.7 4.6 -0.3
v 0.7 4.6 -0.5
v 0.7 4.6 -0.6
v 0.7 4.6 -0.7
v -0.5 4.3 0.3
v -0.5 4.6 0.3
v -0.3 4.3 0.3
v -0.3 4.6 0.3
v -0.2 4.3 0.3
v -0.2 4.6 0.3
v -5.96046e-08 4.3 0.3
v -5.96046e-08 4.6 0.3
v 0.1 4.3 0.3
v 0.1 4.6 0.3
v 0.3 4.3 0.3
v 0.3 4.6 0.3
v 0.4 4.3 0.3
v 0.4 4.6 0.3
v 0.6 4.3 0.3
v 0.6 4.6 0.3
v -0.6 4.3 0.2
v -0.6 4.6 0.2
v -0.5 3.6 0.2
v -0.5 4.3 0.2
v -0.5 4.6 0.2
v -0.4 4.1 0.2
v -0.4 4.3 0.2
v -0.4 4.6 0.2
v -0.4 4.8 0.2
v -0.3 4 0.2
v -0.3 4.1 0.2
v -0.3 4.2 0.2
v -0.3 4.3 0.2
v -0.3 4.6 0.2
v -0.3 4.8 0.2
v -0.3 5 0.2
v -0.2 4.1 0.2
v -0.2 4.2 0.2
v -0.2 4.3 0.2
v -0.2 4.6 0.2
v -0.1 4 0.2
v -0.1 4.1 0.2
v -0.1 4.2 0.2
v -0.1 4.3 0.2
v -5.96046e-08 4.1 0.2
v -5.96046e-08 4.3 0.2
v -5.96046e-08 4.6 0.2
v 0.1 4.1 0.2
v 0.1 4.3 0.2
v 0.1 4.6 0.2
v 0.2 4 0.2
v 0.2 4.1 0.2
v 0.2 4.2 0.2
v 0.2 4.3 0.2
v 0.3 4.1 0.2
v 0.3 4.2 0.2
v 0.3 4.3 0.2
v 0.3 4.6 0.2
v 0.4 4 0.2
v 0.4 4.1 0.2
v 0.4 4.2 0.2
v 0.4 4.3 0.2
v 0.4 4.6 0.2
v 0.4 4.8 0.2
v 0.4 5 0.2
v 0.5 4.1 0.2
v 0.5 4.3 0.2
v 0.5 4.6 0.2
v 0.5 4.8 0.2
v 0.6 3.6 0.2
v 0.6 4.3 0.2
v 0.6 4.6 0.2
v 0.7 4.3 0.2
v 0.7 4.6 0.2
v -0.5 4.6 0.0999998
v -0.5 4.8 0.0999998
v -0.4 3.5 0.0999998
v -0.4 3.6 0.0999998
v -0.4 4.6 0.0999998
v -0.4 4.8 0.0999998
v -0.4 5 0.0999998
v -0.3 4.8 0.0999998
v -0.3 5 0.0999998
v 0.4 4.8 0.0999998
v 0.4 5 0.0999998
v 0.5 3.5 0.0999998
v 0.5 3.6 0.0999998
v 0.5 4.6 0.0999998
v 0.5 4.8 0.0999998
v 0.5 5 0.0999998
v 0.6 4.6 0.0999998
v 0.6 4.8 0.0999998
v -0.5 4.8 -1.49012e-07
v -0.5 5 -1.49012e-07
v -0.4 4.8 -1.49012e-07
v -0.4 5 -1.49012e-07
v 0.5 4.8 -1.49012e-07
v 0.5 5 -1.49012e-07
v 0.6 4.8 -1.49012e-07
v 0.6 5 -1.49012e-07
v -0.5 4.8 -0.5
v -0.5 5 -0.5
v -0.4 4.8 -0.5
v -0.4 5 -0.5
v 0.5 4.8 -0.5
v 0.5 5 -0.5
v 0.6 4.8 -0.5
v 0.6 5 -0.5
v -0.5 4.6 -0.6
v -0.5 4.8 -0.6
v -0.4 3.5 -0.6
v -0.4 3.6 -0.6
v -0.4 4.6 -0.6
v -0.4 4.8 -0.6
v -0.4 5 -0.6
v -0.3 4.8 -0.6
v -0.3 5 -0.6
v 0.4 4.8 -0.6
v 0.4 5 -0.6
v 0.5 3.5 -0.6
v 0.5 3.6 -0.6
v 0.5 4.6 -0.6
v 0.5 4.8 -0.6
v 0.5 5 -0.6
v 0.6 4.6 -0.6
v 0.6 4.8 -0.6
v -0.6 4.3 -0.7
v -0.6 4.6 -0.7
v -0.5 3.6 -0.7
v -0.5 4.3 -0.7
v -0.5 4.6 -0.7
v -0.4 4.6 -0.7
v -0.4 4.8 -0.7
v -0.3 4.3 -0.7
v -0.3 4.6 -0.7
v -0.3 4.8 -0.7
v -0.3 5 -0.7
v -0.2 4.3 -0.7
v -0.2 4.6 -0.7
v -5.96046e-08 4.3 -0.7
v -5.96046e-08 4.6 -0.7
v 0.1 4.3 -0.7
v 0.1 4.6 -0.7
v 0.3 4.3 -0.7
v 0.3 4.6 -0.7
v 0.4 4.3 -0.7
v 0.4 4.6 -0.7
v 0.4 4.8 -0.7
v 0.4 5 -0.7
v 0.5 4.6 -0.7
v 0.5 4.8 -0.7
v 0.6 3.6 -0.7
v 0.6 4.3 -0.7
v 0.6 4.6 -0.7
v 0.7 4.3 -0.7
v 0.7 4.6 -0.7
v -0.5 4.3 -0.8
v -0.5 4.6 -0.8
v -0.3 4.3 -0.8
v -0.3 4.6 -0.8
v -0.2 4.3 -0.8
v -0.2 4.6 -0.8
v -5.96046e-08 4.3 -0.8
v -5.96046e-08 4.6 -0.8
v 0.1 4.3 -0.8
v 0.1 4.6 -0.8
v 0.3 4.3 -0.8
v 0.3 4.6 -0.8
v 0.4 4.3 -0.8
v 0.4 4.6 -0.8
v 0.6 4.3 -0.8
v 0.6 4.6 -0.8
v -0.4 3.5 0.0999998
v 0.5 3.5 0.0999998
v -0.4 3.5 -0.6
v 0.5 3.5 -0.6
v -0.5 3.6 0.2
v 0.6 3.6 0.2
v -0.4 3.6 0.0999998
v 0.5 3.6 0.0999998
v -0.4 3.6 -0.6
v 0.5 3.6 -0.6
v -0.5 3.6 -0.7
v 0.6 3.6 -0.7
v -0.5 4.3 0.3
v -0.3 4.3 0.3
v -0.2 4.3 0.3
v -5.96046e-08 4.3 0.3
v 0.1 4.3 0.3
v 0.3 4.3 0.3
v 0.4 4.3 0.3
v 0.6 4.3 0.3
v -0.6 4.3 0.2
v -0.5 4.3 0.2
v -0.4 4.3 0.2
v -0.3 4.3 0.2
v -0.2 4.3 0.2
v -0.1 4.3 0.2
v -5.96046e-08 4.3 0.2
v 0.1 4.3 0.2
v 0.2 4.3 0.2
v 0.3 4.3 0.2
v 0.4 4.3 0.2
v 0.5 4.3 0.2
v 0.6 4.3 0.2
v 0.7 4.3 0.2
v -0.6 4.3 0.0999998
v -0.5 4.3 0.0999998
v 0.6 4.3 0.0999998
v 0.7 4.3 0.0999998
v -0.6 4.3 -1.49012e-07
v -0.5 4.3 -1.49012e-07
v 0.6 4.3 -1.49012e-07
v 0.7 4.3 -1.49012e-07
v -0.6 4.3 -0.2
v -0.5 4.3 -0.2
v 0.6 4.3 -0.2
v 0.7 4.3 -0.2
v -0.6 4.3 -0.3
v -0.5 4.3 -0.3
v 0.6 4.3 -0.3
v 0.7 4.3 -0.3
v -0.6 4.3 -0.5
v -0.5 4.3 -0.5
v 0.6 4.3 -0.5
v 0.7 4.3 -0.5
v -0.6 4.3 -0.6
v -0.5 4.3 -0.6
v 0.6 4.3 -0.6
v 0.7 4.3 -0.6
v -0.6 4.3 -0.7
v -0.5 4.3 -0.7
v -0.3 4.3 -0.7
v -0.2 4.3 -0.7
v -5.96046e-08 4.3 -0.7
v 0.1 4.3 -0.7
v 0.3 4.3 -0.7
v 0.4 4.3 -0.7
v 0.6 4.3 -0.7
v 0.7 4.3 -0.7
v -0.5 4.3 -0.8
v -0.3 4.3 -0.8
v -0.2 4.3 -0.8
v -5.96046e-08 4.3 -0.8
v 0.1 4.3 -0.8
v 0.3 4.3 -0.8
v 0.4 4.3 -0.8
v 0.6 4.3 -0.8
v -0.5 4.6 0.3
v -0.3 4.6 0.3
v -0.2 4.6 0.3
v -5.96046e-08 4.6 0.3
v 0.1 4.6 0.3
v 0.3 4.6 0.3
v 0.4 4.6 0.3
v 0.6 4.6 0.3
v -0.6 4.6 0.2
v -0.5 4.6 0.2
v -0.4 4.6 0.2
v -0.3 4.6 0.2
v -0.2 4.6 0.2
v -5.96046e-08 4.6 0.2
v 0.1 4.6 0.2
v 0.3 4.6 0.2
v 0.4 4.6 0.2
v 0.5 4.6 0.2
v 0.6 4.6 0.2
v 0.7 4.6 0.2
v -0.6 4.6 0.0999998
v -0.5 4.6 0.0999998
v -0.4 4.6 0.0999998
v 0.5 4.6 0.0999998
v 0.6 4.6 0.0999998
v 0.7 4.6 0.0999998
v -0.6 4.6 -1.49012e-07
v -0.5 4.6 -1.49012e-07
v 0.6 4.6 -1.49012e-07
v 0.7 4.6 -1.49012e-07
v -0.6 4.6 -0.2
v -0.5 4.6 -0.2
v 0.6 4.6 -0.2
v 0.7 4.6 -0.2
v -0.6 4.6 -0.3
v -0.5 4.6 -0.3
v 0.6 4.6 -0.3
v 0.7 4.6 -0.3
v -0.6 4.6 -0.5
v -0.5 4.6 -0.5
v 0.6 4.6 -0.5
v 0.7 4.6 -0.5
v -0.6 4.6 -0.6
v -0.5 4.6 -0.6
v -0.4 4.6 -0.6
v 0.5 4.6 -0.6
v 0.6 4.6 -0.6
v 0.7 4.6 -0.6
v -0.6 4.6 -0.7
v -0.5 4.6 -0.7
v -0.4 4.6 -0.7
v -0.3 4.6 -0.7
v -0.2 4.6 -0.7
v -5.96046e-08 4.6 -0.7
v 0.1 4.6 -0.7
v 0.3 4.6 -0.7
v 0.4 4.6 -0.7
v 0.5 4.6 -0.7
v 0.6 4.6 -0.7
v 0.7 4.6 -0.7
v -0.5 4.6 -0.8
v -0.3 4.6 -0.8
v -0.2 4.6 -0.8
v -5.96046e-08 4.6 -0.8
v 0.1 4.6 -0.8
v 0.3 4.6 -0.8
v 0.4 4.6 -0.8
v 0.6 4.6 -0.8
v -0.4 4.8 0.2
v -0.3 4.8 0.2
v 0.4 4.8 0.2
v 0.5 4.8 0.2
v -0.5 4.8 0.0999998
v -0.4 4.8 0.0999998
v -0.3 4.8 0.0999998
v 0.4 4.8 0.0999998
v 0.5 4.8 0.0999998
v 0.6 4.8 0.0999998
v -0.5 4.8 -1.49012e-07
v -0.4 4.8 -1.49012e-07
v 0.5 4.8 -1.49012e-07
v 0.6 4.8 -1.49012e-07
v -0.5 4.8 -0.5
v -0.4 4.8 -0.5
v 0.5 4.8 -0.5
v 0.6 4.8 -0.5
v -0.5 4.8 -0.6
v -0.4 4.8 -0.6
v -0.3 4.8 -0.6
v 0.4 4.8 -0.6
v 0.5 4.8 -0.6
v 0.6 4.8 -0.6
v -0.4 4.8 -0.7
v -0.3 4.8 -0.7
v 0.4 4.8 -0.7
v 0.5 4.8 -0.7
v -0.3 5 0.2
v 0.4 5 0.2
v -0.4 5 0.0999998
v -0.3 5 0.0999998
v 0.4 5 0.0999998
v 0.5 5 0.0999998
v -0.5 5 -1.49012e-07
v -0.4 5 -1.49012e-07
v 0.5 5 -1.49012e-07
v 0.6 5 -1.49012e-07
v -0.5 5 -0.5
v -0.4 5 -0.5
v 0.5 5 -0.5
v 0.6 5 -0.5
v -0.4 5 -0.6
v -0.3 5 -0.6
v 0.4 5 -0.6
v 0.5 5 -0.6
v -0.3 5 -0.7
v 0.4 5 -0.7

# faces
f 9/3/1 2/3/1 1/3/1
f 10/4/1 3/4/1 2/4/1
f 10/3/1 2/3/1 9/3/1
f 11/3/1 4/3/1 3/3/1
f 11/4/1 3/4/1 10/4/1
f 12/4/1 5/4/1 4/4/1
f 12/3/1 4/3/1 11/3/1
f 13/3/1 6/3/1 5/3/1
f 13/4/1 5/4/1 12/4/1
f 14/4/1 7/4/1 6/4/1
f 14/3/1 6/3/1 13/3/1
f 15/3/1 8/3/1 7/3/1
f 15/4/1 7/4/1 14/4/1
f 16/3/1 8/3/1 15/3/1
f 20/6/1 18/6/1 17/6/1
f 21/6/1 18/6/1 20/6/1
f 22/6/1 18/6/1 21/6/1
f 23/6/1 18/6/1 22/6/1
f 24/6/1 18/6/1 23/6/1
f 25/6/1 18/6/1 24/6/1
f 26/6/1 18/6/1 25/6/1
f 27/6/1 18/6/1 26/6/1
f 29/3/1 20/3/1 19/3/1
f 30/3/1 20/3/1 29/3/1
f 37/3/1 28/3/1 27/3/1
f 38/3/1 28/3/1 37/3/1
f 39/5/1 36/5/1 35/5/1
f 39/5/1 32/5/1 31/5/1
f 39/5/1 35/5/1 34/5/1
f 39/5/1 34/5/1 33/5/1
f 39/5/1 33/5/1 32/5/1
f 40/5/1 36/5/1 39/5/1
f 41/5/1 36/5/1 40/5/1
f 42/5/1 36/5/1 41/5/1
f 43/5/1 41/5/1 40/5/1
f 44/5/1 41/5/1 43/5/1
f 47/6/1 46/6/1 45/6/1
f 48/6/1 46/6/1 47/6/1
f 53/5/1 50/5/1 49/5/1
f 54/5/1 50/5/1 53/5/1
f 57/5/1 52/5/1 51/5/1
f 58/5/1 52/5/1 57/5/1
f 59/5/1 55/5/1 54/5/1
f 60/5/1 55/5/1 59/5/1
f 61/5/1 57/5/1 56/5/1
f 62/5/1 57/5/1 61/5/1
f 67/5/1 64/5/1 63/5/1
f 68/5/1 64/5/1 67/5/1
f 69/5/1 66/5/1 65/5/1
f 70/5/1 66/5/1 69/5/1
f 71/5/2 72/5/2 75/5/2
f 75/5/2 72/5/2 76/5/2
f 73/5/2 74/5/2 77/5/2
f 77/5/2 74/5/2 78/5/2
f 79/6/2 80/6/2 81/6/2
f 81/6/2 80/6/2 82/6/2
f 83/5/2 84/5/2 87/5/2
f 87/5/2 84/5/2 88/5/2
f 85/5/2 86/5/2 91/5/2
f 91/5/2 86/5/2 92/5/2
f 88/5/2 89/5/2 93/5/2
f 93/5/2 89/5/2 94/5/2
f 90/5/2 91/5/2 95/5/2
f 95/5/2 91/5/2 96/5/2
f 97/6/2 98/6/2 100/6/2
f 100/6/2 98/6/2 101/6/2
f 101/6/2 98/6/2 102/6/2
f 102/6/2 98/6/2 103/6/2
f 103/6/2 98/6/2 104/6/2
f 104/6/2 98/6/2 105/6/2
f 105/6/2 98/6/2 106/6/2
f 106/6/2 98/6/2 107/6/2
f 99/3/2 100/3/2 109/3/2
f 109/3/2 100/3/2 110/3/2
f 107/3/2 108/3/2 117/3/2
f 117/3/2 108/3/2 118/3/2
f 115/5/2 116/5/2 119/5/2
f 111/5/2 112/5/2 119/5/2
f 114/5/2 115/5/2 119/5/2
f 113/5/2 114/5/2 119/5/2
f 112/5/2 113/5/2 119/5/2
f 119/5/2 116/5/2 120/5/2
f 120/5/2 116/5/2 121/5/2
f 121/5/2 116/5/2 122/5/2
f 120/5/2 121/5/2 123/5/2
f 123/5/2 121/5/2 124/5/2
f 125/3/2 126/3/2 133/3/2
f 126/4/2 127/4/2 134/4/2
f 133/3/2 126/3/2 134/3/2
f 127/3/2 128/3/2 135/3/2
f 134/4/2 127/4/2 135/4/2
f 128/4/2 129/4/2 136/4/2
f 135/3/2 128/3/2 136/3/2
f 129/3/2 130/3/2 137/3/2
f 136/4/2 129/4/2 137/4/2
f 130/4/2 131/4/2 138/4/2
f 137/3/2 130/3/2 138/3/2
f 131/3/2 132/3/2 139/3/2
f 138/4/2 131/4/2 139/4/2
f 139/3/2 132/3/2 140/3/2
f 143/3/3 142/3/3 141/3/3
f 144/3/3 142/3/3 143/3/3
f 145/4/3 144/4/3 143/4/3
f 146/4/3 144/4/3 145/4/3
f 147/3/3 146/3/3 145/3/3
f 148/3/3 146/3/3 147/3/3
f 149/4/3 148/4/3 147/4/3
f 150/4/3 148/4/3 149/4/3
f 151/3/3 150/3/3 149/3/3
f 152/3/3 150/3/3 151/3/3
f 153/4/3 152/4/3 151/4/3
f 154/4/3 152/4/3 153/4/3
f 155/3/3 154/3/3 153/3/3
f 156/3/3 154/3/3 155/3/3
f 160/3/3 158/3/3 157/3/3
f 161/3/3 158/3/3 160/3/3
f 162/6/3 160/6/3 159/6/3
f 163/6/3 160/6/3 162/6/3
f 166/6/3 162/6/3 159/6/3
f 167/1/3 163/1/3 162/1/3
f 167/6/3 162/6/3 166/6/3
f 168/1/3 163/1/3 167/1/3
f 169/1/3 163/1/3 168/1/3
f 170/5/3 165/5/3 164/5/3
f 171/5/3 165/5/3 170/5/3
f 173/1/3 167/1/3 166/1/3
f 173/6/3 168/6/3 167/6/3
f 174/2/3 169/2/3 168/2/3
f 174/6/3 168/6/3 173/6/3
f 175/2/3 169/2/3 174/2/3
f 176/5/3 172/5/3 171/5/3
f 176/5/3 171/5/3 170/5/3
f 177/6/3 166/6/3 159/6/3
f 177/1/3 173/1/3 166/1/3
f 178/3/3 174/3/3 173/3/3
f 178/1/3 173/1/3 177/1/3
f 179/6/3 175/6/3 174/6/3
f 179/3/3 174/3/3 178/3/3
f 180/6/3 175/6/3 179/6/3
f 181/6/3 178/6/3 177/6/3
f 181/1/3 179/1/3 178/1/3
f 181/1/3 180/1/3 179/1/3
f 182/1/3 180/1/3 181/1/3
f 183/5/3 172/5/3 176/5/3
f 184/6/3 182/6/3 181/6/3
f 184/6/3 181/6/3 177/6/3
f 185/6/3 182/6/3 184/6/3
f 186/5/3 172/5/3 183/5/3
f 187/6/3 177/6/3 159/6/3
f 187/6/3 184/6/3 177/6/3
f 188/1/3 185/1/3 184/1/3
f 188/6/3 184/6/3 187/6/3
f 189/1/3 185/1/3 188/1/3
f 190/1/3 185/1/3 189/1/3
f 191/1/3 188/1/3 187/1/3
f 191/6/3 189/6/3 188/6/3
f 192/2/3 190/2/3 189/2/3
f 192/6/3 189/6/3 191/6/3
f 193/2/3 190/2/3 192/2/3
f 194/5/3 172/5/3 186/5/3
f 195/6/3 187/6/3 159/6/3
f 195/1/3 191/1/3 187/1/3
f 196/3/3 192/3/3 191/3/3
f 196/1/3 191/1/3 195/1/3
f 197/6/3 193/6/3 192/6/3
f 197/3/3 192/3/3 196/3/3
f 198/6/3 193/6/3 197/6/3
f 199/5/3 172/5/3 194/5/3
f 200/5/3 172/5/3 199/5/3
f 201/5/3 172/5/3 200/5/3
f 202/1/3 198/1/3 197/1/3
f 202/6/3 196/6/3 195/6/3
f 202/1/3 197/1/3 196/1/3
f 203/1/3 198/1/3 202/1/3
f 204/5/3 200/5/3 199/5/3
f 205/5/3 200/5/3 204/5/3
f 206/6/3 203/6/3 202/6/3
f 206/6/3 195/6/3 159/6/3
f 206/6/3 202/6/3 195/6/3
f 207/6/3 203/6/3 206/6/3
f 209/3/3 208/3/3 207/3/3
f 210/3/3 208/3/3 209/3/3
f 215/5/3 212/5/3 211/5/3
f 216/5/3 212/5/3 215/5/3
f 218/5/3 217/5/3 216/5/3
f 219/5/3 217/5/3 218/5/3
f 222/6/3 214/6/3 213/6/3
f 223/6/3 214/6/3 222/6/3
f 225/5/3 221/5/3 220/5/3
f 226/5/3 221/5/3 225/5/3
f 227/5/3 225/5/3 224/5/3
f 228/5/3 225/5/3 227/5/3
f 231/5/3 230/5/3 229/5/3
f 232/5/3 230/5/3 231/5/3
f 235/5/3 234/5/3 233/5/3
f 236/5/3 234/5/3 235/5/3
f 237/5/4 238/5/4 239/5/4
f 239/5/4 238/5/4 240/5/4
f 241/5/4 242/5/4 243/5/4
f 243/5/4 242/5/4 244/5/4
f 245/5/4 246/5/4 249/5/4
f 249/5/4 246/5/4 250/5/4
f 250/5/4 251/5/4 252/5/4
f 252/5/4 251/5/4 253/5/4
f 247/6/4 248/6/4 256/6/4
f 256/6/4 248/6/4 257/6/4
f 254/5/4 255/5/4 259/5/4
f 259/5/4 255/5/4 260/5/4
f 258/5/4 259/5/4 261/5/4
f 261/5/4 259/5/4 262/5/4
f 263/3/4 264/3/4 266/3/4
f 266/3/4 264/3/4 267/3/4
f 265/6/4 266/6/4 270/6/4
f 268/5/4 269/5/4 271/5/4
f 271/5/4 269/5/4 272/5/4
f 265/6/4 270/6/4 274/6/4
f 272/5/4 273/5/4 275/5/4
f 271/5/4 272/5/4 275/5/4
f 265/6/4 274/6/4 276/6/4
f 275/5/4 273/5/4 277/5/4
f 265/6/4 276/6/4 278/6/4
f 277/5/4 273/5/4 279/5/4
f 265/6/4 278/6/4 280/6/4
f 279/5/4 273/5/4 281/5/4
f 265/6/4 280/6/4 282/6/4
f 281/5/4 273/5/4 283/5/4
f 283/5/4 273/5/4 284/5/4
f 284/5/4 273/5/4 285/5/4
f 283/5/4 284/5/4 286/5/4
f 286/5/4 284/5/4 287/5/4
f 265/6/4 282/6/4 288/6/4
f 288/6/4 282/6/4 289/6/4
f 289/3/4 290/3/4 291/3/4
f 291/3/4 290/3/4 292/3/4
f 293/3/4 294/3/4 295/3/4
f 295/3/4 294/3/4 296/3/4
f 295/4/4 296/4/4 297/4/4
f 297/4/4 296/4/4 298/4/4
f 297/3/4 298/3/4 299/3/4
f 299/3/4 298/3/4 300/3/4
f 299/4/4 300/4/4 301/4/4
f 301/4/4 300/4/4 302/4/4
f 301/3/4 302/3/4 303/3/4
f 303/3/4 302/3/4 304/3/4
f 303/4/4 304/4/4 305/4/4
f 305/4/4 304/4/4 306/4/4
f 305/3/4 306/3/4 307/3/4
f 307/3/4 306/3/4 308/3/4
f 311/6/5 310/6/5 309/6/5
f 312/6/5 310/6/5 311/6/5
f 315/6/5 314/6/5 313/6/5
f 316/6/5 314/6/5 315/6/5
f 317/6/5 315/6/5 313/6/5
f 318/6/5 314/6/5 316/6/5
f 319/6/5 317/6/5 313/6/5
f 319/6/5 318/6/5 317/6/5
f 320/6/5 314/6/5 318/6/5
f 320/6/5 318/6/5 319/6/5
f 330/3/5 322/3/5 321/3/5
f 331/3/5 322/3/5 330/3/5
f 332/4/5 323/4/5 322/4/5
f 332/3/5 322/3/5 331/3/5
f 333/3/5 324/3/5 323/3/5
f 333/4/5 323/4/5 332/4/5
f 334/3/5 324/3/5 333/3/5
f 335/4/5 325/4/5 324/4/5
f 335/3/5 324/3/5 334/3/5
f 336/3/5 326/3/5 325/3/5
f 336/4/5 325/4/5 335/4/5
f 337/3/5 326/3/5 336/3/5
f 338/4/5 327/4/5 326/4/5
f 338/3/5 326/3/5 337/3/5
f 339/3/5 328/3/5 327/3/5
f 339/4/5 327/4/5 338/4/5
f 340/3/5 328/3/5 339/3/5
f 341/3/5 328/3/5 340/3/5
f 343/3/5 330/3/5 329/3/5
f 344/3/5 330/3/5 343/3/5
f 345/3/5 342/3/5 341/3/5
f 346/3/5 342/3/5 345/3/5
f 347/4/5 344/4/5 343/4/5
f 348/4/5 344/4/5 347/4/5
f 349/4/5 346/4/5 345/4/5
f 350/4/5 346/4/5 349/4/5
f 351/3/5 348/3/5 347/3/5
f 352/3/5 348/3/5 351/3/5
f 353/3/5 350/3/5 349/3/5
f 354/3/5 350/3/5 353/3/5
f 355/4/5 352/4/5 351/4/5
f 356/4/5 352/4/5 355/4/5
f 357/4/5 354/4/5 353/4/5
f 358/4/5 354/4/5 357/4/5
f 359/3/5 356/3/5 355/3/5
f 360/3/5 356/3/5 359/3/5
f 361/3/5 358/3/5 357/3/5
f 362/3/5 358/3/5 361/3/5
f 363/4/5 360/4/5 359/4/5
f 364/4/5 360/4/5 363/4/5
f 365/4/5 362/4/5 361/4/5
f 366/4/5 362/4/5 365/4/5
f 367/3/5 364/3/5 363/3/5
f 368/3/5 364/3/5 367/3/5
f 375/3/5 366/3/5 365/3/5
f 376/3/5 366/3/5 375/3/5
f 377/3/5 369/3/5 368/3/5
f 378/4/5 370/4/5 369/4/5
f 378/3/5 369/3/5 377/3/5
f 379/3/5 371/3/5 370/3/5
f 379/4/5 370/4/5 378/4/5
f 380/4/5 372/4/5 371/4/5
f 380/3/5 371/3/5 379/3/5
f 381/3/5 373/3/5 372/3/5
f 381/4/5 372/4/5 380/4/5
f 382/4/5 374/4/5 373/4/5
f 382/3/5 373/3/5 381/3/5
f 383/3/5 375/3/5 374/3/5
f 383/4/5 374/4/5 382/4/5
f 384/3/5 375/3/5 383/3/5
f 385/3/6 386/3/6 394/3/6
f 394/3/6 386/3/6 395/3/6
f 386/4/6 387/4/6 396/4/6
f 395/3/6 386/3/6 396/3/6
f 387/3/6 388/3/6 397/3/6
f 396/4/6 387/4/6 397/4/6
f 388/4/6 389/4/6 398/4/6
f 397/3/6 388/3/6 398/3/6
f 389/3/6 390/3/6 399/3/6
f 398/4/6 389/4/6 399/4/6
f 390/4/6 391/4/6 400/4/6
f 399/3/6 390/3/6 400/3/6
f 391/3/6 392/3/6 401/3/6
f 400/4/6 391/4/6 401/4/6
f 401/3/6 392/3/6 402/3/6
f 402/3/6 392/3/6 403/3/6
f 393/3/6 394/3/6 405/3/6
f 394/6/6 395/6/6 406/6/6
f 405/3/6 394/3/6 406/3/6
f 406/6/6 395/6/6 407/6/6
f 402/6/6 403/6/6 408/6/6
f 403/3/6 404/3/6 409/3/6
f 408/6/6 403/6/6 409/6/6
f 409/3/6 404/3/6 410/3/6
f 405/4/6 406/4/6 411/4/6
f 411/4/6 406/4/6 412/4/6
f 409/4/6 410/4/6 413/4/6
f 413/4/6 410/4/6 414/4/6
f 411/3/6 412/3/6 415/3/6
f 415/3/6 412/3/6 416/3/6
f 413/3/6 414/3/6 417/3/6
f 417/3/6 414/3/6 418/3/6
f 415/4/6 416/4/6 419/4/6
f 419/4/6 416/4/6 420/4/6
f 417/4/6 418/4/6 421/4/6
f 421/4/6 418/4/6 422/4/6
f 419/3/6 420/3/6 423/3/6
f 423/3/6 420/3/6 424/3/6
f 421/3/6 422/3/6 425/3/6
f 425/3/6 422/3/6 426/3/6
f 423/4/6 424/4/6 427/4/6
f 427/4/6 424/4/6 428/4/6
f 425/4/6 426/4/6 431/4/6
f 431/4/6 426/4/6 432/4/6
f 427/3/6 428/3/6 433/3/6
f 428/6/6 429/6/6 434/6/6
f 433/3/6 428/3/6 434/3/6
f 434/6/6 429/6/6 435/6/6
f 430/6/6 431/6/6 442/6/6
f 431/3/6 432/3/6 443/3/6
f 442/6/6 431/6/6 443/6/6
f 443/3/6 432/3/6 444/3/6
f 434/3/6 435/3/6 445/3/6
f 435/3/6 436/3/6 445/3/6
f 436/4/6 437/4/6 446/4/6
f 445/3/6 436/3/6 446/3/6
f 437/3/6 438/3/6 447/3/6
f 446/4/6 437/4/6 447/4/6
f 438/4/6 439/4/6 448/4/6
f 447/3/6 438/3/6 448/3/6
f 439/3/6 440/3/6 449/3/6
f 448/4/6 439/4/6 449/4/6
f 440/4/6 441/4/6 450/4/6
f 449/3/6 440/3/6 450/3/6
f 441/3/6 442/3/6 451/3/6
f 450/4/6 441/4/6 451/4/6
f 442/3/6 443/3/6 451/3/6
f 451/3/6 443/3/6 452/3/6
f 453/5/6 454/5/6 458/5/6
f 458/5/6 454/5/6 459/5/6
f 455/5/6 456/5/6 460/5/6
f 460/5/6 456/5/6 461/5/6
f 457/5/6 458/5/6 463/5/6
f 463/5/6 458/5/6 464/5/6
f 461/5/6 462/5/6 465/5/6
f 465/5/6 462/5/6 466/5/6
f 467/5/6 468/5/6 471/5/6
f 471/5/6 468/5/6 472/5/6
f 469/5/6 470/5/6 475/5/6
f 475/5/6 470/5/6 476/5/6
f 472/5/6 473/5/6 477/5/6
f 477/5/6 473/5/6 478/5/6
f 474/5/6 475/5/6 479/5/6
f 479/5/6 475/5/6 480/5/6
f 481/5/6 482/5/6 484/5/6
f 484/5/6 482/5/6 485/5/6
f 483/5/6 484/5/6 488/5/6
f 485/5/6 486/5/6 488/5/6
f 484/5/6 485/5/6 488/5/6
f 488/5/6 486/5/6 489/5/6
f 487/5/6 488/5/6 491/5/6
f 489/5/6 490/5/6 491/5/6
f 488/5/6 489/5/6 491/5/6
f 491/5/6 490/5/6 492/5/6
f 492/5/6 490/5/6 493/5/6
f 493/5/6 490/5/6 494/5/6
f 492/5/6 493/5/6 495/5/6
f 495/5/6 493/5/6 496/5/6
f 496/5/6 493/5/6 497/5/6
f 497/5/6 493/5/6 498/5/6
f 496/5/6 497/5/6 499/5/6
f 499/5/6 497/5/6 500/5/6
