# MagicaVoxel @ Ephtracy

# group
o 

# material
mtllib thiefArm.mtl
usemtl palette

# normals
vn -1 0 0
vn 1 0 0
vn 0 0 1
vn 0 0 -1
vn 0 -1 0
vn 0 1 0

# texcoords
vt 0.986328 0.5
vt 0.990234 0.5
vt 0.994141 0.5

# verts
v -2 3 -9.68575e-08
v -2 3 -0.2
v -2 3 -0.4
v -2 3.2 -0.1
v -2 3.2 -0.2
v -2 3.3 -9.68575e-08
v -2 3.3 -0.1
v -2 3.4 -9.68575e-08
v -2 3.4 -0.4
v -0.6 3 -9.68575e-08
v -0.6 3 -0.4
v -0.6 3.4 -9.68575e-08
v -0.6 3.4 -0.4
v -2 3 -9.68575e-08
v -2 3.3 -9.68575e-08
v -2 3.4 -9.68575e-08
v -1.9 3.3 -9.68575e-08
v -1.9 3.4 -9.68575e-08
v -1.8 3 -9.68575e-08
v -1.8 3.3 -9.68575e-08
v -0.6 3 -9.68575e-08
v -0.6 3.4 -9.68575e-08
v -2 3 -0.4
v -2 3.4 -0.4
v -1.9 3 -0.4
v -1.9 3.2 -0.4
v -1.9 3.3 -0.4
v -1.9 3.4 -0.4
v -1.8 3.2 -0.4
v -1.8 3.3 -0.4
v -0.6 3 -0.4
v -0.6 3.4 -0.4
v -2 3 -9.68575e-08
v -1.8 3 -9.68575e-08
v -0.6 3 -9.68575e-08
v -2 3 -0.2
v -1.9 3 -0.2
v -1.9 3 -0.3
v -1.8 3 -0.3
v -2 3 -0.4
v -1.9 3 -0.4
v -0.6 3 -0.4
v -2 3.4 -9.68575e-08
v -1.9 3.4 -9.68575e-08
v -0.6 3.4 -9.68575e-08
v -2 3.4 -0.4
v -1.9 3.4 -0.4
v -0.6 3.4 -0.4

# faces
f 4/2/1 2/2/1 1/2/1
f 5/1/1 3/1/1 2/1/1
f 5/2/1 2/2/1 4/2/1
f 6/2/1 4/2/1 1/2/1
f 7/1/1 5/1/1 4/1/1
f 7/2/1 4/2/1 6/2/1
f 8/1/1 7/1/1 6/1/1
f 9/1/1 3/1/1 5/1/1
f 9/1/1 7/1/1 8/1/1
f 9/1/1 5/1/1 7/1/1
f 10/3/2 11/3/2 12/3/2
f 12/3/2 11/3/2 13/3/2
f 17/2/3 15/2/3 14/2/3
f 17/1/3 16/1/3 15/1/3
f 18/1/3 16/1/3 17/1/3
f 19/2/3 17/2/3 14/2/3
f 20/3/3 18/3/3 17/3/3
f 20/2/3 17/2/3 19/2/3
f 21/3/3 20/3/3 19/3/3
f 22/3/3 18/3/3 20/3/3
f 22/3/3 20/3/3 21/3/3
f 23/1/4 24/1/4 25/1/4
f 25/1/4 24/1/4 26/1/4
f 26/1/4 24/1/4 27/1/4
f 27/1/4 24/1/4 28/1/4
f 25/3/4 26/3/4 29/3/4
f 26/1/4 27/1/4 29/1/4
f 27/3/4 28/3/4 30/3/4
f 29/1/4 27/1/4 30/1/4
f 25/3/4 29/3/4 31/3/4
f 29/3/4 30/3/4 31/3/4
f 30/3/4 28/3/4 32/3/4
f 31/3/4 30/3/4 32/3/4
f 36/2/5 34/2/5 33/2/5
f 37/2/5 34/2/5 36/2/5
f 38/1/5 37/1/5 36/1/5
f 38/2/5 34/2/5 37/2/5
f 39/3/5 35/3/5 34/3/5
f 39/2/5 34/2/5 38/2/5
f 40/1/5 38/1/5 36/1/5
f 41/3/5 39/3/5 38/3/5
f 41/1/5 38/1/5 40/1/5
f 42/3/5 35/3/5 39/3/5
f 42/3/5 39/3/5 41/3/5
f 43/1/6 44/1/6 46/1/6
f 44/3/6 45/3/6 47/3/6
f 46/1/6 44/1/6 47/1/6
f 47/3/6 45/3/6 48/3/6
