# MagicaVoxel @ Ephtracy

# group
o 

# material
mtllib thiefPierna.mtl
usemtl palette

# normals
vn -1 0 0
vn 1 0 0
vn 0 0 1
vn 0 0 -1
vn 0 -1 0
vn 0 1 0

# texcoords
vt 0.751953 0.5
vt 0.779297 0.5
vt 0.783203 0.5
vt 0.970703 0.5
vt 0.990234 0.5
vt 0.994141 0.5

# verts
v -0.6 0 0.5
v -0.6 0 -0.4
v -0.6 0.1 0.5
v -0.6 0.1 -0.4
v -0.6 0.3 0.5
v -0.6 0.3 -1.19209e-07
v -0.6 0.3 -0.2
v -0.6 0.3 -0.3
v -0.6 0.3 -0.4
v -0.6 1.6 -1.19209e-07
v -0.6 1.6 -0.2
v -0.6 1.6 -0.3
v -0.6 1.6 -0.4
v -0.2 0 0.5
v -0.2 0 -0.4
v -0.2 0.1 0.5
v -0.2 0.1 -0.4
v -0.2 0.3 0.5
v -0.2 0.3 -1.19209e-07
v -0.2 0.3 -0.4
v -0.2 1.6 -1.19209e-07
v -0.2 1.6 -0.4
v -0.6 0 0.5
v -0.6 0.1 0.5
v -0.6 0.3 0.5
v -0.2 0 0.5
v -0.2 0.1 0.5
v -0.2 0.3 0.5
v -0.6 0.3 -1.19209e-07
v -0.6 1.6 -1.19209e-07
v -0.5 0.9 -1.19209e-07
v -0.5 1 -1.19209e-07
v -0.4 0.9 -1.19209e-07
v -0.4 1 -1.19209e-07
v -0.2 0.3 -1.19209e-07
v -0.2 1.6 -1.19209e-07
v -0.6 0 -0.4
v -0.6 0.1 -0.4
v -0.6 0.3 -0.4
v -0.6 1.6 -0.4
v -0.2 0 -0.4
v -0.2 0.1 -0.4
v -0.2 0.3 -0.4
v -0.2 1.6 -0.4
v -0.6 0 0.5
v -0.2 0 0.5
v -0.6 0 -0.4
v -0.2 0 -0.4
v -0.6 0.3 0.5
v -0.2 0.3 0.5
v -0.5 0.3 0.4
v -0.3 0.3 0.4
v -0.5 0.3 0.3
v -0.3 0.3 0.3
v -0.5 0.3 0.2
v -0.3 0.3 0.2
v -0.5 0.3 0.0999999
v -0.3 0.3 0.0999999
v -0.6 0.3 -1.19209e-07
v -0.2 0.3 -1.19209e-07
v -0.6 1.6 -1.19209e-07
v -0.2 1.6 -1.19209e-07
v -0.6 1.6 -0.2
v -0.5 1.6 -0.2
v -0.6 1.6 -0.3
v -0.5 1.6 -0.3
v -0.6 1.6 -0.4
v -0.2 1.6 -0.4

# faces
f 3/4/1 2/4/1 1/4/1
f 4/4/1 2/4/1 3/4/1
f 5/6/1 4/6/1 3/6/1
f 6/6/1 4/6/1 5/6/1
f 7/6/1 4/6/1 6/6/1
f 8/6/1 4/6/1 7/6/1
f 9/6/1 4/6/1 8/6/1
f 10/3/1 7/3/1 6/3/1
f 11/1/1 8/1/1 7/1/1
f 11/3/1 7/3/1 10/3/1
f 12/3/1 9/3/1 8/3/1
f 12/1/1 8/1/1 11/1/1
f 13/3/1 9/3/1 12/3/1
f 14/4/2 15/4/2 16/4/2
f 16/4/2 15/4/2 17/4/2
f 16/6/2 17/6/2 18/6/2
f 18/6/2 17/6/2 19/6/2
f 19/6/2 17/6/2 20/6/2
f 19/3/2 20/3/2 21/3/2
f 21/3/2 20/3/2 22/3/2
f 26/4/3 24/4/3 23/4/3
f 27/6/3 25/6/3 24/6/3
f 27/4/3 24/4/3 26/4/3
f 28/6/3 25/6/3 27/6/3
f 31/3/3 30/3/3 29/3/3
f 32/3/3 30/3/3 31/3/3
f 33/3/3 31/3/3 29/3/3
f 33/2/3 32/2/3 31/2/3
f 34/3/3 30/3/3 32/3/3
f 34/2/3 32/2/3 33/2/3
f 35/3/3 33/3/3 29/3/3
f 35/3/3 34/3/3 33/3/3
f 36/3/3 30/3/3 34/3/3
f 36/3/3 34/3/3 35/3/3
f 37/4/4 38/4/4 41/4/4
f 38/6/4 39/6/4 42/6/4
f 41/4/4 38/4/4 42/4/4
f 39/3/4 40/3/4 43/3/4
f 42/6/4 39/6/4 43/6/4
f 43/3/4 40/3/4 44/3/4
f 47/4/5 46/4/5 45/4/5
f 48/4/5 46/4/5 47/4/5
f 49/6/6 50/6/6 51/6/6
f 51/6/6 50/6/6 52/6/6
f 49/6/6 51/6/6 53/6/6
f 51/5/6 52/5/6 53/5/6
f 52/6/6 50/6/6 54/6/6
f 53/5/6 52/5/6 54/5/6
f 49/6/6 53/6/6 55/6/6
f 53/6/6 54/6/6 55/6/6
f 54/6/6 50/6/6 56/6/6
f 55/6/6 54/6/6 56/6/6
f 49/6/6 55/6/6 57/6/6
f 55/5/6 56/5/6 57/5/6
f 56/6/6 50/6/6 58/6/6
f 57/5/6 56/5/6 58/5/6
f 49/6/6 57/6/6 59/6/6
f 57/6/6 58/6/6 59/6/6
f 58/6/6 50/6/6 60/6/6
f 59/6/6 58/6/6 60/6/6
f 61/3/6 62/3/6 63/3/6
f 63/3/6 62/3/6 64/3/6
f 63/1/6 64/1/6 65/1/6
f 64/3/6 62/3/6 66/3/6
f 65/1/6 64/1/6 66/1/6
f 65/3/6 66/3/6 67/3/6
f 66/3/6 62/3/6 68/3/6
f 67/3/6 66/3/6 68/3/6
